PathFileType	4	(X/Y/Z)	 C:\Users\z3550257\Dropbox\University\GitHubClones\TheiaOpensim\ExampleData\P01_procesed_with_single_calib\C3D_data\jump_0_Theia.trc
DataRate	CameraRate	NumFrames	NumMarkers	Units	OrigDataRate	OrigDataStartFrame	OrigNumFrames
100	100	8	40	m	100	1	2485
Frame#	Time	PELVIS1			LHIP			LKNEE			LANK			LMTP			RHIP			RKNEE			RANK			RMTP			CVJ			TORSO			LSHO			LELB			LWRIST			RSHO			RELB			RWRIST			LCALC			RCALC			LTOE			RTOE			LHAND			RHAND			HEAD_CENTRE			TORSO_LOW			LTHI			RTHI			LSHA			RSHA			L_LCALC			R_LCALC			LUA			RUA			LFRM			RFRM			HEAD_L			HEAD_R			TORSO_L			TORSO_R			PELVIS2			
		X1	Y1	Z1	X2	Y2	Z2	X3	Y3	Z3	X4	Y4	Z4	X5	Y5	Z5	X6	Y6	Z6	X7	Y7	Z7	X8	Y8	Z8	X9	Y9	Z9	X10	Y10	Z10	X11	Y11	Z11	X12	Y12	Z12	X13	Y13	Z13	X14	Y14	Z14	X15	Y15	Z15	X16	Y16	Z16	X17	Y17	Z17	X18	Y18	Z18	X19	Y19	Z19	X20	Y20	Z20	X21	Y21	Z21	X22	Y22	Z22	X23	Y23	Z23	X24	Y24	Z24	X25	Y25	Z25	X26	Y26	Z26	X27	Y27	Z27	X28	Y28	Z28	X29	Y29	Z29	X30	Y30	Z30	X31	Y31	Z31	X32	Y32	Z32	X33	Y33	Z33	X34	Y34	Z34	X35	Y35	Z35	X36	Y36	Z36	X37	Y37	Z37	X38	Y38	Z38	X39	Y39	Z39	X40	Y40	Z40	
1	0.0100	0.328759	0.971602	-0.179657	0.339250	0.879752	-0.271066	0.321608	0.488509	-0.311695	0.277991	0.095660	-0.353004	0.424751	0.033665	-0.380174	0.335391	0.878695	-0.088959	0.308135	0.491005	-0.037986	0.265889	0.095677	0.003422	0.413770	0.034196	0.019656	0.319919	1.594282	-0.196449	0.345609	1.492271	-0.191852	0.336951	1.384345	-0.354821	0.327116	1.079954	-0.403627	0.404148	0.833342	-0.416509	0.330634	1.397915	-0.022336	0.290966	1.095437	0.025337	0.362041	0.846562	0.048944	0.223014	0.026472	-0.342341	0.210468	0.025806	-0.006440	0.473581	0.032586	-0.389220	0.463361	0.034543	0.025961	0.425329	0.766768	-0.423501	0.373694	0.778479	0.055160	0.355833	1.627910	-0.195797	0.356260	1.238034	-0.185292	0.319547	0.689168	-0.365482	0.309900	0.691340	0.010407	0.290423	0.298549	-0.396357	0.276817	0.300970	0.046458	0.262811	0.043840	-0.388841	0.252580	0.044048	0.040263	0.370670	1.243101	-0.365461	0.351875	1.254822	-0.005808	0.394679	0.974316	-0.387017	0.360793	0.989971	0.024362	0.283291	1.711765	-0.274592	0.274565	1.712885	-0.124850	0.348371	1.488519	-0.341779	0.342848	1.496024	-0.041924	0.337321	0.879224	-0.180012	
2	0.0200	0.328696	0.971616	-0.179695	0.339182	0.879763	-0.271101	0.321259	0.488539	-0.311779	0.277955	0.095650	-0.353043	0.424736	0.033722	-0.380247	0.335450	0.878723	-0.088991	0.308157	0.491009	-0.038224	0.265862	0.095724	0.003540	0.413662	0.033973	0.019475	0.319881	1.594155	-0.196429	0.345675	1.492229	-0.192016	0.337067	1.384457	-0.354906	0.327094	1.080067	-0.403694	0.404170	0.833461	-0.416419	0.330802	1.398012	-0.022286	0.291207	1.095551	0.025547	0.362090	0.846619	0.049139	0.223008	0.026438	-0.342390	0.210298	0.025958	-0.006244	0.473565	0.032832	-0.389305	0.463264	0.034373	0.025694	0.425522	0.766934	-0.423315	0.373771	0.778563	0.055580	0.355766	1.627815	-0.195811	0.356146	1.237989	-0.185291	0.319180	0.689210	-0.365515	0.309779	0.691327	0.010248	0.290093	0.298556	-0.396398	0.276686	0.301066	0.046368	0.262792	0.043833	-0.388891	0.252529	0.044106	0.040387	0.370710	1.243191	-0.365503	0.352066	1.254923	-0.005756	0.394640	0.974438	-0.386961	0.361060	0.990100	0.024978	0.283059	1.711621	-0.274503	0.274501	1.712700	-0.124753	0.348496	1.488379	-0.341940	0.342855	1.496079	-0.042092	0.337316	0.879243	-0.180046	
3	0.0300	0.328659	0.971631	-0.179734	0.339140	0.879766	-0.271127	0.320945	0.488560	-0.311856	0.277933	0.095636	-0.353085	0.424728	0.033750	-0.380310	0.335508	0.878760	-0.089016	0.308181	0.491026	-0.038428	0.265840	0.095779	0.003648	0.413568	0.033793	0.019330	0.319842	1.594059	-0.196390	0.345728	1.492194	-0.192140	0.337159	1.384560	-0.354965	0.327057	1.080176	-0.403760	0.404198	0.833584	-0.416356	0.330938	1.398093	-0.022230	0.291403	1.095649	0.025758	0.362143	0.846674	0.049310	0.223004	0.026408	-0.342445	0.210157	0.026104	-0.006110	0.473557	0.033054	-0.389377	0.463177	0.034249	0.025485	0.425692	0.767095	-0.423180	0.373821	0.778635	0.055936	0.355707	1.627741	-0.195809	0.356052	1.237952	-0.185285	0.318849	0.689244	-0.365542	0.309671	0.691327	0.010110	0.289793	0.298558	-0.396437	0.276567	0.301164	0.046292	0.262781	0.043823	-0.388944	0.252481	0.044154	0.040475	0.370732	1.243276	-0.365536	0.352219	1.255006	-0.005703	0.394605	0.974564	-0.386934	0.361291	0.990220	0.025540	0.282861	1.711504	-0.274418	0.274469	1.712573	-0.124659	0.348599	1.488269	-0.342061	0.342857	1.496120	-0.042219	0.337324	0.879263	-0.180071	
4	0.0400	0.328660	0.971648	-0.179779	0.339141	0.879756	-0.271144	0.320691	0.488566	-0.311925	0.277934	0.095612	-0.353135	0.424731	0.033730	-0.380354	0.335558	0.878809	-0.089031	0.308210	0.491060	-0.038571	0.265821	0.095843	0.003736	0.413497	0.033687	0.019245	0.319804	1.594015	-0.196320	0.345760	1.492172	-0.192198	0.337208	1.384648	-0.354981	0.326995	1.080277	-0.403827	0.404235	0.833711	-0.416338	0.331024	1.398147	-0.022164	0.291524	1.095721	0.025968	0.362203	0.846721	0.049442	0.223003	0.026384	-0.342511	0.210061	0.026237	-0.006076	0.473561	0.033231	-0.389423	0.463109	0.034198	0.025372	0.425824	0.767250	-0.423129	0.373827	0.778685	0.056183	0.355665	1.627701	-0.195786	0.355992	1.237927	-0.185273	0.318583	0.689264	-0.365561	0.309586	0.691351	0.010011	0.289546	0.298552	-0.396477	0.276471	0.301260	0.046242	0.262786	0.043806	-0.389003	0.252433	0.044183	0.040505	0.370721	1.243350	-0.365551	0.352308	1.255059	-0.005650	0.394576	0.974694	-0.386949	0.361459	0.990322	0.025997	0.282726	1.711436	-0.274338	0.274494	1.712541	-0.124571	0.348668	1.488206	-0.342117	0.342851	1.496139	-0.042279	0.337350	0.879283	-0.180088	
5	0.0500	0.328697	0.971662	-0.179834	0.339187	0.879731	-0.271159	0.320509	0.488557	-0.311987	0.277958	0.095581	-0.353195	0.424746	0.033659	-0.380375	0.335598	0.878862	-0.089046	0.308243	0.491106	-0.038644	0.265805	0.095909	0.003803	0.413451	0.033659	0.019224	0.319774	1.594029	-0.196227	0.345768	1.492163	-0.192185	0.337206	1.384722	-0.354950	0.326908	1.080369	-0.403894	0.404284	0.833845	-0.416370	0.331053	1.398172	-0.022086	0.291566	1.095764	0.026171	0.362265	0.846759	0.049526	0.223005	0.026367	-0.342590	0.210016	0.026346	-0.006145	0.473579	0.033350	-0.389438	0.463061	0.034221	0.025363	0.425919	0.767400	-0.423176	0.373788	0.778709	0.056302	0.355651	1.627698	-0.195741	0.355970	1.237917	-0.185257	0.318403	0.689265	-0.365581	0.309534	0.691393	0.009952	0.289370	0.298534	-0.396523	0.276406	0.301347	0.046222	0.262806	0.043780	-0.389070	0.252388	0.044189	0.040476	0.370675	1.243416	-0.365549	0.352331	1.255080	-0.005595	0.394552	0.974828	-0.387007	0.361551	0.990399	0.026315	0.282677	1.711432	-0.274262	0.274583	1.712606	-0.124488	0.348704	1.488196	-0.342103	0.342832	1.496130	-0.042266	0.337392	0.879296	-0.180103	
6	0.0600	0.328754	0.971666	-0.179902	0.339267	0.879697	-0.271186	0.320400	0.488536	-0.312050	0.277997	0.095544	-0.353270	0.424769	0.033552	-0.380373	0.335623	0.878904	-0.089074	0.308278	0.491149	-0.038653	0.265790	0.095964	0.003850	0.413428	0.033691	0.019256	0.319761	1.594086	-0.196127	0.345757	1.492166	-0.192113	0.337158	1.384790	-0.354885	0.326804	1.080459	-0.403958	0.404349	0.833989	-0.416442	0.331037	1.398170	-0.021996	0.291546	1.095778	0.026358	0.362319	0.846780	0.049567	0.223008	0.026357	-0.342680	0.210013	0.026418	-0.006286	0.473606	0.033407	-0.389421	0.463032	0.034296	0.025437	0.425992	0.767552	-0.423307	0.373718	0.778705	0.056300	0.355668	1.627723	-0.195679	0.355981	1.237919	-0.185240	0.318316	0.689252	-0.365613	0.309515	0.691441	0.009924	0.289273	0.298509	-0.396581	0.276374	0.301410	0.046231	0.262838	0.043745	-0.389144	0.252348	0.044167	0.040405	0.370599	1.243481	-0.365537	0.352300	1.255072	-0.005538	0.394532	0.974969	-0.387092	0.361575	0.990441	0.026485	0.282716	1.711491	-0.274184	0.274727	1.712733	-0.124405	0.348717	1.488232	-0.342032	0.342797	1.496099	-0.042194	0.337445	0.879300	-0.180130	
7	0.0700	0.328813	0.971657	-0.179981	0.339365	0.879663	-0.271235	0.320358	0.488510	-0.312116	0.278043	0.095511	-0.353357	0.424796	0.033430	-0.380354	0.335637	0.878920	-0.089125	0.308312	0.491174	-0.038621	0.265777	0.095993	0.003882	0.413424	0.033749	0.019320	0.319771	1.594162	-0.196038	0.345733	1.492175	-0.192009	0.337079	1.384862	-0.354810	0.326698	1.080554	-0.404018	0.404435	0.834146	-0.416537	0.330990	1.398147	-0.021901	0.291494	1.095765	0.026513	0.362355	0.846779	0.049576	0.223009	0.026359	-0.342777	0.210039	0.026445	-0.006448	0.473638	0.033407	-0.389379	0.463021	0.034380	0.025555	0.426065	0.767714	-0.423488	0.373636	0.778674	0.056208	0.355718	1.627758	-0.195610	0.356011	1.237929	-0.185226	0.318317	0.689230	-0.365665	0.309525	0.691477	0.009910	0.289253	0.298483	-0.396654	0.276372	0.301440	0.046261	0.262876	0.043709	-0.389223	0.252318	0.044120	0.040322	0.370508	1.243555	-0.365526	0.352240	1.255043	-0.005481	0.394514	0.975116	-0.387176	0.361545	0.990444	0.026517	0.282829	1.711600	-0.274095	0.274904	1.712870	-0.124312	0.348722	1.488297	-0.341929	0.342743	1.496054	-0.042089	0.337501	0.879291	-0.180180	
8	0.0800	0.328861	0.971636	-0.180063	0.339465	0.879640	-0.271310	0.320375	0.488490	-0.312184	0.278088	0.095491	-0.353449	0.424823	0.033313	-0.380323	0.335648	0.878901	-0.089201	0.308341	0.491170	-0.038574	0.265772	0.095990	0.003905	0.413434	0.033795	0.019394	0.319807	1.594229	-0.195971	0.345702	1.492188	-0.191898	0.336988	1.384948	-0.354750	0.326609	1.080659	-0.404075	0.404546	0.834316	-0.416632	0.330925	1.398108	-0.021807	0.291439	1.095727	0.026622	0.362368	0.846749	0.049565	0.223008	0.026375	-0.342873	0.210077	0.026430	-0.006579	0.473671	0.033361	-0.389320	0.463025	0.034434	0.025675	0.426155	0.767887	-0.423677	0.373561	0.778615	0.056061	0.355791	1.627785	-0.195539	0.356047	1.237942	-0.185216	0.318393	0.689210	-0.365739	0.309557	0.691488	0.009896	0.289300	0.298464	-0.396736	0.276391	0.301433	0.046298	0.262915	0.043682	-0.389301	0.252303	0.044057	0.040257	0.370420	1.243647	-0.365526	0.352173	1.254999	-0.005425	0.394495	0.975268	-0.387226	0.361486	0.990403	0.026443	0.282982	1.711733	-0.273984	0.275085	1.712965	-0.124199	0.348731	1.488372	-0.341818	0.342673	1.496005	-0.041977	0.337556	0.879270	-0.180255	
